HIERARCHY
ROOT hip
{
  OFFSET 0 0 0
  CHANNELS 6 Xposition Yposition Zposition Zrotation Yrotation Xrotation
  JOINT abdomen
  {
    OFFSET 0 20.6881 -0.73152
    CHANNELS 3 Zrotation Xrotation Yrotation
    JOINT chest
    {
      OFFSET 0 11.7043 -0.48768
      CHANNELS 3 Zrotation Xrotation Yrotation
      JOINT neck
      {
        OFFSET 0 22.1894 -2.19456
        CHANNELS 3 Zrotation Xrotation Yrotation
        JOINT head
        {
          OFFSET -0.24384 7.07133 1.2192
          CHANNELS 3 Zrotation Xrotation Yrotation
          JOINT leftEye
          {
            OFFSET 4.14528 8.04674 8.04672
            CHANNELS 3 Zrotation Xrotation Yrotation
            End Site
            {
              OFFSET 1 0 0
            }
          }
          JOINT rightEye
          {
            OFFSET -3.6576 8.04674 8.04672
            CHANNELS 3 Zrotation Xrotation Yrotation
            End Site
            {
              OFFSET 1 0 0
            }
          }
        }
      }
      JOINT rCollar
      {
        OFFSET -2.68224 19.2634 -4.8768
        CHANNELS 3 Zrotation Xrotation Yrotation
        JOINT rShldr
        {
          OFFSET -8.77824 -1.95073 1.46304
          CHANNELS 3 Zrotation Xrotation Yrotation
          JOINT rForeArm
          {
            OFFSET -28.1742 -1.7115 0.48768
            CHANNELS 3 Zrotation Xrotation Yrotation
            JOINT rHand
            {
              OFFSET -22.5879 0.773209 7.07136
              CHANNELS 3 Zrotation Xrotation Yrotation
              JOINT rThumb1
              {
                OFFSET -1.2192 -0.487915 3.41376
                CHANNELS 3 Zrotation Xrotation Yrotation
                JOINT rThumb2
                {
                  OFFSET -3.37035 -0.52449 3.41376
                  CHANNELS 3 Zrotation Xrotation Yrotation
                  End Site
                  {
                    OFFSET -1.78271 -1.18214 1.43049
                  }
                }
              }
              JOINT rIndex1
              {
                OFFSET -7.75947 0.938293 5.60832
                CHANNELS 3 Zrotation Xrotation Yrotation
                JOINT rIndex2
                {
                  OFFSET -2.54057 -0.884171 1.56538
                  CHANNELS 3 Zrotation Xrotation Yrotation
                  End Site
                  {
                    OFFSET -1.62519 -0.234802 1.16502
                  }
                }
              }
              JOINT rMid1
              {
                OFFSET -8.24714 1.18213 3.41376
                CHANNELS 3 Zrotation Xrotation Yrotation
                JOINT rMid2
                {
                  OFFSET -3.10165 -0.590103 1.0647
                  CHANNELS 3 Zrotation Xrotation Yrotation
                  End Site
                  {
                    OFFSET -2.48547 -0.328903 0.83742
                  }
                }
              }
              JOINT rRing1
              {
                OFFSET -8.82822 0.546677 1.51678
                CHANNELS 3 Zrotation Xrotation Yrotation
                JOINT rRing2
                {
                  OFFSET -2.60934 -0.819778 -0.0198488
                  CHANNELS 3 Zrotation Xrotation Yrotation
                  End Site
                  {
                    OFFSET -2.33842 -0.294052 0.168128
                  }
                }
              }
              JOINT rPinky1
              {
                OFFSET -8.27202 -0.0477905 -0.4584
                CHANNELS 3 Zrotation Xrotation Yrotation
                JOINT rPinky2
                {
                  OFFSET -1.82734 -0.647385 -0.700984
                  CHANNELS 3 Zrotation Xrotation Yrotation
                  End Site
                  {
                    OFFSET -1.69225 -0.51767 -0.607171
                  }
                }
              }
            }
          }
        }
      }
      JOINT lCollar
      {
        OFFSET 2.68224 19.2634 -4.8768
        CHANNELS 3 Zrotation Xrotation Yrotation
        JOINT lShldr
        {
          OFFSET 8.77824 -1.95073 1.46304
          CHANNELS 3 Zrotation Xrotation Yrotation
          JOINT lForeArm
          {
            OFFSET 28.1742 -1.7115 0.48768
            CHANNELS 3 Zrotation Xrotation Yrotation
            JOINT lHand
            {
              OFFSET 22.5879 0.773209 7.07136
              CHANNELS 3 Zrotation Xrotation Yrotation
              JOINT lThumb1
              {
                OFFSET 1.2192 -0.487915 3.41376
                CHANNELS 3 Zrotation Xrotation Yrotation
                JOINT lThumb2
                {
                  OFFSET 3.37035 -0.52449 3.41376
                  CHANNELS 3 Zrotation Xrotation Yrotation
                  End Site
                  {
                    OFFSET 1.78271 -1.18214 1.43049
                  }
                }
              }
              JOINT lIndex1
              {
                OFFSET 7.75947 0.938293 5.60832
                CHANNELS 3 Zrotation Xrotation Yrotation
                JOINT lIndex2
                {
                  OFFSET 2.54057 -0.884171 1.56538
                  CHANNELS 3 Zrotation Xrotation Yrotation
                  End Site
                  {
                    OFFSET 1.62519 -0.234802 1.16502
                  }
                }
              }
              JOINT lMid1
              {
                OFFSET 8.24714 1.18213 3.41376
                CHANNELS 3 Zrotation Xrotation Yrotation
                JOINT lMid2
                {
                  OFFSET 3.10165 -0.590103 1.0647
                  CHANNELS 3 Zrotation Xrotation Yrotation
                  End Site
                  {
                    OFFSET 2.48547 -0.328903 0.83742
                  }
                }
              }
              JOINT lRing1
              {
                OFFSET 8.82822 0.546677 1.51678
                CHANNELS 3 Zrotation Xrotation Yrotation
                JOINT lRing2
                {
                  OFFSET 2.60934 -0.819778 -0.0198488
                  CHANNELS 3 Zrotation Xrotation Yrotation
                  End Site
                  {
                    OFFSET 2.33842 -0.294052 0.168128
                  }
                }
              }
              JOINT lPinky1
              {
                OFFSET 8.27202 -0.0477905 -0.4584
                CHANNELS 3 Zrotation Xrotation Yrotation
                JOINT lPinky2
                {
                  OFFSET 1.82734 -0.647385 -0.700984
                  CHANNELS 3 Zrotation Xrotation Yrotation
                  End Site
                  {
                    OFFSET 1.69225 -0.51767 -0.607171
                  }
                }
              }
            }
          }
        }
      }
    }
  }
  JOINT rButtock
  {
    OFFSET -8.77824 4.35084 1.2192
    CHANNELS 3 Zrotation Xrotation Yrotation
    JOINT rThigh
    {
      OFFSET 0 -1.70687 -2.19456
      CHANNELS 3 Zrotation Xrotation Yrotation
      JOINT rShin
      {
        OFFSET 0 -36.8199 0.73152
        CHANNELS 3 Zrotation Xrotation Yrotation
        JOINT rFoot
        {
          OFFSET 0.73152 -45.1104 -5.12064
          CHANNELS 3 Zrotation Xrotation Yrotation
          End Site
          {
            OFFSET -1.1221 -3.69964 12.103
          }
        }
      }
    }
  }
  JOINT lButtock
  {
    OFFSET 8.77824 4.35084 1.2192
    CHANNELS 3 Zrotation Xrotation Yrotation
    JOINT lThigh
    {
      OFFSET 0 -1.70687 -2.19456
      CHANNELS 3 Zrotation Xrotation Yrotation
      JOINT lShin
      {
        OFFSET 0 -36.8199 0.73152
        CHANNELS 3 Zrotation Xrotation Yrotation
        JOINT lFoot
        {
          OFFSET -0.73152 -45.1104 -5.12064
          CHANNELS 3 Zrotation Xrotation Yrotation
          End Site
          {
            OFFSET 1.1221 -3.69964 12.103
          }
        }
      }
    }
  }
}
MOTION
Frames:	5
Frame Time:	0.00833333
-201.889 59.4275 69.8697 0.0 0.0 0.0 -3.13108 0.00208556 -0.0844998 -0.863198 0.0181961 -0.149326 5.78365e-14 7.95139e-16 -4.96962e-17 1.73933e-13 9.54166e-15 -5.43552e-17 -0.0 0.0 0.0 -0.0 0.0 0.0 2.93215e-14 1.95679e-16 0.0 6.09958e-13 3.86388e-15 2.38542e-15 1.04837e-11 -3.0096e-12 -1.17681e-13 1.20074e-10 3.85732e-12 1.52667e-13 2.83214e-10 1.8384e-12 7.31528e-14 4.89087e-10 3.17419e-12 1.23246e-13 2.83218e-10 1.83637e-12 6.67917e-14 7.73091 5.47488 0.417314 2.83212e-10 1.83786e-12 7.95139e-14 2.90554 0.965183 0.102902 2.83214e-10 1.83836e-12 7.71284e-14 10.2786 0.731801 0.0259123 2.83204e-10 1.84313e-12 9.22361e-14 2.22167 -0.733487 -0.20892 2.91231e-14 2.00726e-16 -2.48481e-16 6.08952e-13 3.64646e-15 9.93923e-16 1.04975e-11 3.26623e-12 -8.90555e-14 1.20037e-10 -2.43524e-12 1.39944e-13 2.83172e-10 1.80353e-12 6.36111e-14 4.89042e-10 3.11376e-12 1.03368e-13 2.83168e-10 1.80337e-12 7.63333e-14 -7.73091 5.47488 -0.417314 2.83173e-10 1.80258e-12 5.725e-14 -2.90554 0.965183 -0.102902 2.83168e-10 1.80308e-12 6.2816e-14 -10.2786 0.731801 -0.0259123 2.83179e-10 1.80656e-12 5.08889e-14 -2.22167 -0.733487 0.20892 -2.03217e-16 0.0 -3.88251e-19 -1.92036 -1.93503 0.0146507 -0.0084891 -2.07867 -0.0696592 -0.456994 4.00011 0.132212 2.03217e-16 0.0 3.88251e-19 -2.83982 -9.32608 0.322482 -0.0090148 11.3076 -0.234985 0.529038 -1.99495 -0.0185264
-197.665 57.875 66.3025 29.995 70.661 30.5375 -5.30742 13.072 4.58822 -1.02686 -0.460952 0.989794 -2.04614 4.25808 -2.96418 12.5416 -14.6362 0.00362838 -0.0 0.0 0.0 -0.0 0.0 0.0 4.59621e-14 -8.81573e-13 3.15509e-14 13.5387 1.04409 7.2778 -16.1562 -13.5165 14.824 -0.0185816 -0.17159 -0.0276155 2.71006e-10 3.21495e-10 -3.66661e-10 4.68809e-10 5.56988e-10 -6.33474e-10 2.71009e-10 3.21493e-10 -3.66666e-10 7.73091 5.47488 0.417314 2.71004e-10 3.21494e-10 -3.66656e-10 2.90554 0.965183 0.102902 2.71007e-10 3.21494e-10 -3.66659e-10 10.2786 0.731801 0.0259123 2.70996e-10 3.21498e-10 -3.66646e-10 2.22167 -0.733487 -0.20892 4.58018e-14 -8.81571e-13 3.13307e-14 -27.5837 18.5535 4.73201 6.90808 -3.95585 -9.75835 -0.1133 -7.52111 1.02501 8.55843e-10 5.87784e-10 -3.6638e-10 1.48644e-09 1.01064e-09 -6.20199e-10 8.5584e-10 5.87785e-10 -3.66369e-10 -7.73091 5.47488 -0.417314 8.55843e-10 5.87784e-10 -3.66384e-10 -2.90554 0.965183 -0.102902 8.55837e-10 5.87786e-10 -3.6638e-10 -10.2786 0.731801 -0.0259123 8.55849e-10 5.87787e-10 -3.66392e-10 -2.22167 -0.733487 0.20892 -2.03217e-16 0.0 -3.88251e-19 -15.2632 -2.1656 -0.909643 0.112375 7.3637 0.245958 0.198752 0.707729 1.16526 2.03217e-16 0.0 3.88251e-19 1.20524 -24.7651 6.42452 -0.127968 23.0554 -0.533244 -0.571971 2.87254 -2.83499
-194.433 57.0463 65.3507 24.5301 68.7505 24.9053 -10.1878 26.5915 10.4642 -1.18829 -0.971889 2.21205 -3.74555 8.74009 -6.12998 25.7775 -30.0855 0.0405449 -0.0 0.0 0.0 -0.0 0.0 0.0 6.45309e-14 -1.85661e-12 6.69656e-14 27.5693 2.06755 15.0193 -25.2771 -24.5718 32.9277 -0.0508715 0.000101477 -0.00934454 2.48837e-10 6.73808e-10 -7.81142e-10 4.3162e-10 1.16786e-09 -1.34982e-09 2.48839e-10 6.73805e-10 -7.81146e-10 7.73091 5.47488 0.417314 2.48836e-10 6.73806e-10 -7.81139e-10 2.90554 0.965183 0.102902 2.4884e-10 6.73806e-10 -7.81141e-10 10.2786 0.731801 0.0259123 2.48828e-10 6.73807e-10 -7.81133e-10 2.22167 -0.733487 -0.20892 6.441e-14 -1.85661e-12 6.67761e-14 -60.8893 37.6336 11.7554 12.7957 -7.7849 -20.2642 0.0712381 -15.5576 2.1825 1.50302e-09 1.25249e-09 -7.73841e-10 2.61353e-09 2.15378e-09 -1.30989e-09 1.50302e-09 1.25249e-09 -7.73832e-10 -7.73091 5.47488 -0.417314 1.50302e-09 1.25249e-09 -7.73843e-10 -2.90554 0.965183 -0.102902 1.50301e-09 1.2525e-09 -7.73841e-10 -10.2786 0.731801 -0.0259123 1.50303e-09 1.25249e-09 -7.73852e-10 -2.22167 -0.733487 0.20892 -2.03217e-16 0.0 -3.88251e-19 -29.4666 -2.36024 -1.86243 0.122309 17.4201 0.601932 1.04478 -2.88167 2.46593 2.03217e-16 0.0 3.88251e-19 9.93486 -40.3307 15.1422 -0.0918918 35.2527 -0.940024 -1.20711 8.14963 -5.96327
-191.509 56.4097 64.5845 18.8201 66.9637 19.7682 -17.429 38.0337 17.339 -1.29704 -1.41715 3.26894 -4.79478 12.6358 -9.08992 37.6321 -43.9087 0.0146186 -0.0 0.0 0.0 -0.0 0.0 0.0 7.92433e-14 -2.64511e-12 9.46526e-14 39.8409 2.93106 21.8598 -27.5302 -29.1203 51.6086 -0.0562411 -0.514771 -0.0828496 2.4659e-10 9.6081e-10 -1.10013e-09 4.28252e-10 1.66462e-09 -1.90067e-09 2.4659e-10 9.60807e-10 -1.10013e-09 7.73091 5.47488 0.417314 2.46589e-10 9.60807e-10 -1.10013e-09 2.90554 0.965183 0.102902 2.46593e-10 9.60806e-10 -1.10013e-09 10.2786 0.731801 0.0259123 2.46581e-10 9.60807e-10 -1.10012e-09 2.22167 -0.733487 -0.20892 7.91591e-14 -2.64511e-12 9.44891e-14 -97.1521 53.5846 23.0795 16.8216 -10.4919 -29.7507 0.523693 -22.5332 3.30082 2.00118e-09 1.75974e-09 -1.09927e-09 3.48122e-09 3.0257e-09 -1.8608e-09 2.00118e-09 1.75975e-09 -1.09926e-09 -7.73091 5.47488 -0.417314 2.00118e-09 1.75975e-09 -1.09927e-09 -2.90554 0.965183 -0.102902 2.00117e-09 1.75975e-09 -1.09927e-09 -10.2786 0.731801 -0.0259123 2.00119e-09 1.75975e-09 -1.09928e-09 -2.22167 -0.733487 0.20892 -2.03217e-16 0.0 -3.88251e-19 -41.9712 -2.62454 -2.75916 0.0141335 26.2454 0.971141 1.86744 -5.86724 3.24876 2.03217e-16 0.0 3.88251e-19 24.6069 -52.5542 28.4877 0.167072 46.5441 -1.47015 -1.31618 12.4786 -8.66341
-189.142 56.7867 64.033 8.786 65.2051 10.6675 -24.4834 45.4577 23.4146 -1.31668 -1.70046 3.91145 -5.16921 15.1943 -11.3462 45.8978 -53.6664 -0.260471 -0.0 0.0 0.0 -0.0 0.0 0.0 8.43146e-14 -2.96726e-12 1.0302e-13 48.231 3.58082 26.4249 -27.5752 -28.496 64.8531 -0.00925695 -2.74599 -0.386223 2.94146e-10 1.08453e-09 -1.18038e-09 5.09437e-10 1.87608e-09 -2.03778e-09 2.94146e-10 1.08453e-09 -1.18038e-09 7.73091 5.47488 0.417314 2.94145e-10 1.08453e-09 -1.18038e-09 2.90554 0.965183 0.102902 2.94151e-10 1.08453e-09 -1.18038e-09 10.2786 0.731801 0.0259123 2.94138e-10 1.08453e-09 -1.18038e-09 2.22167 -0.733487 -0.20892 8.42604e-14 -2.96726e-12 1.02871e-13 -130.347 63.3678 38.1069 18.963 -11.7608 -36.2181 0.977257 -26.8879 4.08654 2.12681e-09 1.87337e-09 -1.2196e-09 3.70042e-09 3.21961e-09 -2.06476e-09 2.12681e-09 1.87337e-09 -1.21959e-09 -7.73091 5.47488 -0.417314 2.12681e-09 1.87337e-09 -1.2196e-09 -2.90554 0.965183 -0.102902 2.1268e-09 1.87337e-09 -1.2196e-09 -10.2786 0.731801 -0.0259123 2.12681e-09 1.87337e-09 -1.21961e-09 -2.22167 -0.733487 0.20892 -2.03217e-16 0.0 -3.88251e-19 -50.2223 -3.06413 -3.5156 -0.136084 31.9962 1.27756 2.26225 -7.36099 2.70108 2.03217e-16 0.0 3.88251e-19 42.2725 -58.5605 44.6995 0.622873 55.5766 -2.07148 -1.30501 14.594 -10.0464
